<svg width="300" height="300" viewBox="0 0 300 300" fill="none" xmlns="http://www.w3.org/2000/svg">
<g clip-path="url(#clip0_212_13)">
<path d="M91.4184 288.666L91.4188 288.666C109.974 296.514 129.684 300.494 150 300.494C170.315 300.494 190.023 296.52 208.575 288.672L208.576 288.672C244.651 273.376 273.37 244.657 288.666 208.582L288.666 208.581C296.514 190.026 300.494 170.316 300.494 150C300.494 129.684 296.52 109.971 288.672 91.4173L288.672 91.4169C273.376 55.3417 244.657 26.6237 208.582 11.3283L208.581 11.3281C190.023 3.47995 170.316 -0.5 150 -0.5C129.684 -0.5 109.971 3.47994 91.4172 11.3281L91.4169 11.3283C55.3419 26.6241 26.6241 55.342 11.3283 91.4169L11.3281 91.4173C3.47994 109.971 -0.5 129.685 -0.5 150C-0.5 170.315 3.47995 190.023 11.3281 208.581L11.3283 208.582C26.6254 244.655 55.3437 273.371 91.4184 288.666ZM149.5 2.87634V2.88004H150C169.862 2.88004 189.128 6.77023 207.264 14.4406C242.534 29.3918 270.613 57.4662 285.568 92.7343C293.239 110.875 297.129 130.136 297.129 150.005C297.129 169.873 293.234 189.138 285.569 207.274C270.615 242.541 242.541 270.615 207.275 285.568C189.134 293.239 169.873 297.129 150.005 297.129C130.136 297.129 110.871 293.234 92.7348 285.569C57.4683 270.615 29.3939 242.541 14.4404 207.274C6.77016 189.133 2.88004 169.873 2.88004 150.005C2.88004 130.136 6.77468 110.871 14.4405 92.7346C29.3919 57.4673 57.4647 29.3913 92.7303 14.4359C110.719 6.83001 129.814 2.94109 149.5 2.87634Z" fill="white" stroke="#DCDCFF"/>
<path d="M153.264 166.141C146.888 160.249 135.812 161.039 131.477 161.514C120.455 162.721 113.417 166.445 103.939 166.556C96.0644 166.648 91.3481 159.003 92.44 149.115C93.4566 139.907 100.143 121.491 100.969 114.827C101.618 109.604 99.8396 104.886 94.6165 104.886C89.3933 104.886 84.042 109.687 80.9757 115.746C80.9757 115.746 82.6348 104.637 74.5098 104.637C66.3848 104.637 58.6157 116.787 58.6157 116.787C58.6157 116.787 58.8148 106.25 45.6446 106.25C33.0988 106.25 23.8486 117.349 23.8486 124.919C23.8486 129.105 25.8245 133.415 31.1863 133.415C35.5256 133.415 39.5286 130.607 40.5512 125.556C40.9494 123.584 40.5285 121.592 39.6915 121.455C38.8544 121.317 38.702 122.56 36.5166 122.56C31.4322 122.56 35.3099 111.467 44.085 111.467C53.5871 111.467 51.4755 124.369 44.4229 137.3C37.3702 150.232 36.3145 153.238 35.9766 156.305C35.586 159.924 41.1846 164.902 43.34 165.318C45.4953 165.734 45.904 163.909 48.729 154.376C51.554 144.842 62.5734 112.844 69.1223 112.844C75.6711 112.844 62.6789 141.142 61.9565 148.679C61.6548 151.894 63.0304 152.964 64.9851 154.365C67.5024 156.175 70.5792 156.431 71.1117 154.745C72.4932 150.371 76.8431 134.053 79.65 125.145C81.309 119.889 86.3647 111.571 89.6045 111.571C92.8443 111.571 90.4341 116.898 87.2833 126.847C84.1325 136.795 78.0286 154.158 83.0858 163.526C88.143 172.894 97.2409 172.65 106.449 171.648C115.008 170.718 123.224 167.623 135.81 167.662C145.376 167.692 150.879 170.754 153.629 172.647C154.357 173.147 154.855 173.814 155.038 173.889C155.703 174.173 158.495 170.977 153.264 166.141Z" fill="white"/>
<path d="M207.368 160.178C205.567 161.941 201.637 165.057 193.191 165.057C182.07 165.057 174.582 155.238 175.74 143.724C176.594 135.239 179.554 125.358 181.846 118.05C188.618 119.903 196.21 122.471 203.242 122.471C214.24 122.471 220.578 115.15 221.407 114.156C222.237 113.162 224.602 109.589 222.175 109.441C219.748 109.293 216.279 115.053 202.617 115.053C192.1 115.053 187.281 113.925 183.491 112.806C184.011 111.112 184.405 109.746 184.595 108.815C184.799 107.817 183.49 105.218 179.401 104.333C175.312 103.447 175.256 105.658 174.26 108.477C174.128 108.853 173.877 109.618 173.544 110.684C172.704 110.631 171.793 110.603 170.79 110.603C162.268 110.603 158.051 115.222 156.674 117.332C155.059 119.808 155.489 121.833 157.006 120.651C160.297 118.087 163.878 116.192 171.42 116.192C171.571 116.192 171.739 116.192 171.9 116.192C169.998 122.815 167.506 132.368 166.345 140.146C164.627 145.501 161.73 152.514 158.351 152.514C153.323 152.514 155.201 146.434 156.528 141.794C157.855 137.153 159.763 131.293 158.381 128.144C157 124.994 154.629 124.776 151.805 124.993C147.495 125.325 145.309 124.827 145.309 124.827C145.309 124.109 149.398 115.764 139.771 114.247C134.815 113.465 132.758 121.233 136.578 126.098C137.754 127.596 138.967 128.629 140.696 129.222C139.864 136.557 135.558 152.989 130.996 152.989C128.399 152.989 125.746 149.145 128.785 138.172C131.383 128.791 134.201 124.718 128.675 123.391C124.767 122.453 123.928 123.299 122.103 129.807C121.325 126.13 119.18 123.678 115.642 123.678C107.518 123.678 99.5833 133.516 99.5833 146.947C99.5833 157.558 106.197 158.074 107.784 158.074C111.603 158.074 115.777 154.125 118.701 148.149C119.331 155.101 123.646 157.953 127.859 157.953C133.754 157.953 137.845 154.838 141.216 142.756C143.137 135.871 144.091 131.975 144.564 129.819C146.234 129.834 147.904 129.737 149.561 129.528C149.561 129.528 145.472 144.395 145.582 150.087C145.692 155.78 150.281 157.493 153.983 157.493C157.415 157.493 161.651 157.255 165.948 150.624C167.571 161.092 176.992 170.757 189.756 170.757C201.068 170.757 208.216 165.856 210.38 162.384C211.334 160.855 208.694 158.875 207.368 160.178ZM118.066 135.703C117.195 142.257 113.471 150.861 110.714 150.843C108.512 150.828 108.591 145.922 109.658 141.181C111.016 135.148 114.032 128.976 116.625 128.976C118.391 128.975 118.47 132.667 118.066 135.703Z" fill="white"/>
<path d="M270.073 143.082C265.532 143.082 261.381 147.14 261.381 151.83C261.381 153.303 262.753 153.962 263.812 153.107C264.77 152.333 266.023 151.683 267.657 151.683C271.729 151.683 273.097 154.765 273.097 157.639C273.097 161.876 268.897 166.334 264.66 166.334C259.907 166.334 257.744 162.151 257.18 157.467C256.664 153.181 257.217 147.655 260.521 134.391C263.839 121.067 268.344 110.385 268.989 108.554C269.845 106.123 268.354 105.073 265.949 104.383C262.204 103.306 260.218 103.651 258.28 108.681C256.342 113.711 248.983 135 247.254 150.86C247.254 150.881 247.254 150.902 247.254 150.923C246.048 152.431 244.638 153.353 243.009 153.353C237.366 153.353 239.098 139.537 244.182 127.562C245.104 125.39 244.429 123.631 241.897 123.215C238.211 122.611 237.105 123.228 235.412 128.644C234.421 125.605 232.573 123.602 229.813 123.602C222.51 123.602 216.889 131.212 214.545 139.202C213.48 140.815 211.83 143.175 209.417 146.291C206.732 149.75 202.204 153.403 198.943 153.305C196.115 153.22 192.734 151.655 192.734 146.418C192.734 146.296 192.734 146.175 192.734 146.054C193.631 146.54 194.633 146.799 195.654 146.808C203.169 146.808 206.834 140.255 208.106 136.251C209.549 131.715 208.456 124.684 200.922 124.684C193.314 124.684 183.176 133.987 183.176 145.917C183.176 151.06 185.535 158.66 197.102 158.022C203.957 158.022 210.763 150.262 213.355 146.596C213.223 152.905 215.652 157.985 221.198 157.985C225.612 157.985 229.124 155.302 231.645 151.436C232.701 156.084 235.945 157.808 240.146 157.808C242.521 157.808 244.915 157.205 247.164 155.234C247.705 163.701 252.496 171.601 261.595 171.601C274.798 171.601 279.584 160.152 279.584 153.351C279.578 146.199 275.123 143.082 270.073 143.082ZM201.166 128.289C205.589 128.289 204.563 137.64 193.138 141.065C194.43 133.012 198.459 128.289 201.166 128.289ZM224.882 152.636C220.358 152.636 225.268 128.264 230.685 128.264C235.663 128.264 229.86 152.636 224.882 152.636Z" fill="white"/>
<path d="M167.829 184.33C167.829 184.33 170.184 185.137 169.454 187.684L168.146 192.254L168.018 192.707L167.882 193.18L167.749 193.645L167.598 194.162L167.429 194.75L167.396 194.865L167.227 195.453L167.077 195.97L166.944 196.435L166.808 196.909L166.366 198.453L166.135 197.355L166.078 197.084L166.04 196.903L165.16 192.71L165.122 192.529L164.104 187.687C163.568 185.14 165.531 184.333 165.531 184.333H157.636C157.657 184.345 157.68 184.353 157.704 184.358C158.92 184.66 159.564 185.999 159.228 187.655C158.891 189.311 155.929 199.257 155.929 199.257L155.175 195.694L155.122 195.441L154.855 194.174L154.802 193.921L154.452 192.262L153.492 187.692C152.956 185.144 154.918 184.337 154.918 184.337H147.036C147.036 184.337 149.338 185.144 149.873 187.692L151.184 193.924L151.237 194.177L151.504 195.444L151.557 195.697L151.906 197.357L152.867 201.927C153.403 204.474 150.535 205.281 150.535 205.281H159.335C159.335 205.281 159.274 205.26 159.172 205.213C157.526 204.459 156.837 202.786 157.298 201.159L160.751 188.965L161.443 192.257L161.621 193.102L161.645 193.215L162.027 195.025L162.143 195.58L162.389 196.752L162.437 196.982C162.914 199.245 163.424 201.225 163.475 201.921C163.647 204.37 161.384 205.275 161.384 205.275H170.244C169.478 205.009 168.792 204.553 168.252 203.948C167.671 203.27 167.318 202.352 167.497 201.479V201.468C167.63 200.833 168.081 199.251 168.633 197.35H168.654C168.947 196.328 169.258 195.213 169.576 194.112C169.758 193.485 169.939 192.859 170.113 192.253H170.104C170.707 190.141 171.221 188.331 171.42 187.683C172.119 185.432 175.288 184.429 175.719 184.328H167.825L167.829 184.33Z" fill="white"/>
<path d="M108.687 203.314C106.975 203.314 106.039 203.387 105.989 202.341V187.683C105.989 185.269 108.07 184.328 108.07 184.328H100.205C100.853 184.613 101.401 185.084 101.781 185.681C102.161 186.278 102.355 186.975 102.337 187.683V201.504C102.325 202.152 102.159 202.787 101.852 203.358C101.081 204.807 100.206 205.376 100.206 205.376H114.105V199.48C114.105 199.48 112.538 203.314 108.687 203.314Z" fill="white"/>
<path d="M91.8141 201.826C89.4355 201.826 86.0751 199.08 86.0751 193.049C86.0751 188.888 87.695 186.99 89.6482 186.58C91.3329 186.226 93.3239 187.746 94.3057 189.708C94.3193 189.737 95.9875 188.664 95.8065 186.057C95.722 184.839 94.7507 183.607 91.2198 183.607C87.2697 183.607 82.3588 187.581 82.3588 195.228C82.3588 202.93 86.5698 205.519 90.0947 205.519C93.1926 205.519 95.0991 203.792 95.7642 201.669C96.2167 200.216 95.8939 199.468 95.8939 199.468C95.8939 199.468 94.363 201.826 91.8141 201.826Z" fill="white"/>
<path d="M52.6384 201.826C50.2599 201.826 46.8995 199.08 46.8995 193.049C46.8995 188.888 48.5193 186.99 50.4726 186.58C52.1573 186.226 54.1482 187.746 55.1301 189.708C55.1436 189.737 56.8118 188.664 56.6308 186.057C56.5463 184.839 55.575 183.607 52.0442 183.607C48.094 183.607 43.1831 187.581 43.1831 195.228C43.1831 202.93 47.3942 205.519 50.919 205.519C54.017 205.519 55.9234 203.792 56.5886 201.669C57.041 200.216 56.7183 199.468 56.7183 199.468C56.7183 199.468 55.1798 201.826 52.6384 201.826Z" fill="white"/>
<path d="M119.494 187.684V201.504C119.482 202.152 119.315 202.787 119.008 203.358C118.237 204.807 117.363 205.376 117.363 205.376H131.261V199.933C131.261 199.933 129.694 203.767 125.844 203.767C124.132 203.767 123.195 203.839 123.145 202.794C123.145 201.494 123.145 198.56 123.145 195.539H124.904C128.117 195.539 129.037 197.868 129.037 197.868V191.589C129.037 191.589 128.117 193.918 124.904 193.918H123.156C123.156 190.123 123.172 186.627 123.186 186.539C123.448 185.741 124.975 185.936 126.448 185.936C129.507 185.936 131.261 189.476 131.261 189.476V184.334H117.361C118.008 184.618 118.557 185.089 118.936 185.685C119.316 186.281 119.51 186.977 119.494 187.684Z" fill="white"/>
<path d="M185.643 184.1C180.96 184.1 177.162 188.913 177.162 194.85C177.162 200.786 180.959 205.599 185.643 205.599C190.328 205.599 194.124 200.786 194.124 194.85C194.124 188.913 190.328 184.1 185.643 184.1ZM186.238 203.038C183.855 203.038 181.333 199.308 181.066 195.078C180.787 190.661 181.615 186.349 183.998 186.349C186.381 186.349 188.854 190.422 189.277 194.851C189.61 198.409 188.621 203.038 186.238 203.038Z" fill="white"/>
<path d="M73.6486 188.028C73.3348 189.358 72.0151 191.574 71.1358 192.952C69.2625 185.213 62.5734 179.325 57.6806 179.111C52.7591 178.894 51.5691 180.782 51.5691 180.782C55.3292 180.079 60.6187 182.165 63.9263 187.388C67.1419 192.459 67.9745 197.946 67.9745 200.453C67.9745 203.528 65.6864 205.31 65.6864 205.31H73.9909C72.1433 204.629 71.5913 202.323 71.5913 200.453C71.5913 200 71.5913 199.691 71.5913 199.482V199.491C71.6697 196.447 73.4012 192.112 75.3484 188.812C76.3113 187.209 77.4572 185.724 78.7631 184.385H72.8371C73.27 184.966 74.1297 185.99 73.6486 188.028Z" fill="white"/>
<path d="M211.818 198.705C211.409 197.017 210.379 195.848 209.103 195.262C211.32 194.177 212.778 192.396 212.778 189.894C212.778 186.072 208.581 184.331 206.402 184.331H197.996C198.644 184.616 199.193 185.087 199.573 185.684C199.952 186.281 200.146 186.978 200.129 187.686V201.924C200.146 202.631 199.952 203.328 199.573 203.925C199.193 204.523 198.644 204.993 197.996 205.278H205.878C205.23 204.993 204.681 204.523 204.302 203.925C203.922 203.328 203.728 202.631 203.745 201.924V196.578C205.174 196.388 206.913 196.48 207.516 197.856C208.967 201.121 207.198 205.587 212.018 205.48C214.321 205.429 215.097 204.055 215.097 204.055C215.097 204.055 213.134 204.141 211.818 198.705ZM208.717 190.192C208.717 192.589 207.341 194.444 203.753 194.48V187.693C203.753 187.455 203.773 187.218 203.813 186.984C206.344 186.974 208.717 187.048 208.717 190.192Z" fill="white"/>
<path d="M232.075 198.705C231.363 195.762 230.416 192.584 227.896 193.136C227.434 193.25 226.996 193.444 226.602 193.709C228.802 189.995 234.783 183.072 241.467 181.367C244.837 180.508 246.422 180.915 246.422 180.915C246.422 180.915 245.262 178.64 239.968 179.036C233.935 179.488 227.712 187.934 224.267 193.83V187.685C224.25 186.978 224.443 186.281 224.823 185.684C225.203 185.087 225.752 184.616 226.4 184.331H218.505C219.153 184.616 219.702 185.087 220.082 185.684C220.462 186.281 220.655 186.978 220.638 187.685V201.924C220.655 202.631 220.462 203.328 220.082 203.925C219.702 204.522 219.153 204.993 218.505 205.278H226.391C225.743 204.993 225.194 204.522 224.814 203.925C224.434 203.328 224.241 202.631 224.258 201.924V197.806C224.246 197.295 224.337 196.787 224.523 196.311C224.606 196.1 224.738 195.911 224.907 195.759C225.077 195.608 225.28 195.499 225.499 195.441C225.986 195.325 226.433 195.494 226.737 196.179C228.188 199.444 227.46 205.587 232.279 205.481C234.582 205.43 235.357 204.056 235.357 204.056C235.357 204.056 233.392 204.141 232.075 198.705Z" fill="white"/>
<path d="M246.761 192.087C245.006 191.096 242.36 190.399 242.5 187.768C242.627 185.376 247.365 186.008 248.986 189.363C248.986 189.363 249.726 186.176 250.152 183.818C250.152 183.818 249.684 184.271 248.559 184.286C247.306 184.31 246.095 184.12 244.736 184.073C242.232 183.989 239.209 185.857 239.196 190.489C239.176 196.812 247.704 195.681 247.689 199.743C247.681 201.908 246.259 202.654 245.276 202.654C243.289 202.654 241.689 200.844 241.859 197.406L237.5 200.592C237.5 200.592 239.369 205.475 243.998 205.475C248.627 205.475 251.817 201.78 251.817 198.596C251.817 195.412 249.728 193.761 246.761 192.087Z" fill="white"/>
<path d="M65.6322 69.7105L68.4753 72.4616L59.4438 83.4553L58.9265 83.0315C59.0703 82.8364 59.2543 82.5705 59.4785 82.2336C59.6339 82.018 59.7677 81.7876 59.8782 81.5459C59.9651 81.3411 59.9852 81.1141 59.9355 80.8973C59.8699 80.7058 59.7486 80.5382 59.5871 80.4162L52.1559 74.3167C52.0099 74.192 51.8344 74.1068 51.6461 74.0694C51.4133 74.0494 51.181 74.1136 50.9915 74.2504C50.7349 74.4077 50.4931 74.5879 50.269 74.7888C50.0439 74.9784 49.8289 75.1798 49.625 75.3921L49.1077 74.9683L57.5253 64.7212L60.0154 66.7664L59.4408 67.4662C58.9702 67.2882 58.3574 67.2354 57.6022 67.3078C56.8471 67.3802 56.2986 67.5879 55.9567 67.9308C55.7787 68.1077 55.5751 68.3259 55.3459 68.5853C55.1166 68.8448 54.8612 69.1464 54.5797 69.4903L52.8693 71.5717L56.9748 74.9442L58.201 73.451C58.5044 73.1091 58.7583 72.7263 58.9551 72.3138C59.0663 72.0369 59.1097 71.7375 59.0818 71.4405C59.0426 71.1544 58.9489 70.8784 58.8058 70.6275C58.6665 70.3618 58.4959 70.1136 58.2975 69.8885L58.8722 69.1886L62.9189 72.5068L62.3442 73.2067C62.0638 73.0283 61.7589 72.8917 61.4392 72.8009C61.168 72.7072 60.8814 72.6657 60.5946 72.6788C60.2662 72.7108 59.9531 72.833 59.6897 73.0317C59.3607 73.2992 59.0627 73.6028 58.8013 73.9367L57.5751 75.4298L60.6625 77.9773C60.9034 78.1882 61.1737 78.363 61.4649 78.4962C61.6804 78.5874 61.9231 78.5901 62.1406 78.5037C62.4145 78.3836 62.6605 78.2079 62.863 77.9879C63.1195 77.7295 63.4598 77.3423 63.8841 76.8265L64.5538 76.0166C64.8303 75.6807 65.053 75.3896 65.222 75.1433C65.4033 74.8802 65.569 74.6068 65.7182 74.3243C65.8496 74.1097 65.9296 73.8676 65.952 73.6169C65.9324 73.0142 65.8247 72.4177 65.6322 71.8462C65.4946 71.3435 65.3103 70.8547 65.0817 70.3862L65.6322 69.7105Z" fill="white"/>
<path d="M84.3512 58.1934L78.2698 63.4225L77.8264 62.9158C78.2328 62.5655 78.6069 62.1793 78.944 61.7619C79.1974 61.4321 79.2668 61.2009 79.1522 61.0681C79.0908 60.9968 78.8938 60.9093 78.5609 60.8057C78.1713 60.6888 77.7755 60.5931 77.3754 60.5191C76.8727 60.4246 76.2744 60.315 75.5806 60.1903C74.8868 60.0656 74.2151 59.9571 73.5656 59.8645C73.5032 60.8801 73.4655 62.0711 73.4525 63.4376C73.4394 64.8041 73.4897 65.5583 73.6033 65.7C73.738 65.8569 73.9306 65.8921 74.1809 65.8056C74.4313 65.7191 74.8838 65.4125 75.5384 64.8856L75.9743 65.3923L71.1207 69.5657L70.6848 69.0589C70.8356 68.9131 71.0231 68.7206 71.2474 68.4813C71.4406 68.2851 71.6074 68.0645 71.7436 67.8252C71.9243 67.482 72.0568 67.1156 72.1372 66.7362C72.1993 66.3904 72.2366 66.0406 72.2489 65.6895C72.279 64.9343 72.3293 63.9791 72.3997 62.8238C72.4701 61.6684 72.5193 60.6363 72.5475 59.7273C71.8436 59.6267 70.9502 59.5026 69.8673 59.3548C68.7844 59.2069 67.628 59.0461 66.3983 58.8721C66.0137 58.8088 65.6251 58.7735 65.2354 58.7665C64.935 58.7807 64.6391 58.8459 64.3606 58.9596C64.1088 59.0664 63.8691 59.1999 63.6457 59.3578C63.3602 59.5498 63.1369 59.7062 62.9761 59.8268L62.5402 59.3201L68.5551 54.1467L68.991 54.6535C68.6315 54.9835 68.2934 55.3361 67.979 55.7093C67.6492 56.0964 67.5375 56.3518 67.6441 56.4755C67.7215 56.566 67.9342 56.6585 68.2821 56.753C68.63 56.8475 69.0182 56.9345 69.4465 57.0139L70.9231 57.2854C71.4641 57.386 72.1066 57.4865 72.8507 57.5871C72.913 56.2658 72.9422 55.0969 72.9381 54.0803C72.9341 53.0638 72.8542 52.4635 72.6983 52.2795C72.5676 52.1266 72.3569 52.1131 72.0664 52.2388C71.6086 52.4746 71.1803 52.7637 70.7904 53.1L70.3545 52.5932L75.199 48.4274L75.6349 48.9341C75.4861 49.0699 75.3016 49.2599 75.0814 49.5043C74.8913 49.7078 74.7225 49.9301 74.5776 50.1679C74.3934 50.4746 74.2652 50.8117 74.199 51.1634C74.1618 51.4349 74.1251 51.8149 74.0889 52.3036C74.0236 53.2146 73.9703 54.0633 73.9291 54.8496C73.8878 55.6359 73.8441 56.5881 73.7978 57.7062C74.7521 57.8289 75.8265 57.9767 77.021 58.1497L80.4463 58.6429C80.8356 58.695 81.2288 58.7121 81.6212 58.6941C81.9367 58.6893 82.2507 58.6504 82.5578 58.578C82.8113 58.4923 83.0477 58.3626 83.2562 58.1949C83.5176 57.9988 83.7358 57.8299 83.9108 57.6881L84.3512 58.1934Z" fill="white"/>
<path d="M92.4567 41.3566C92.8103 41.9087 92.9924 42.5533 92.98 43.2088C92.956 43.8756 92.7708 44.5266 92.4401 45.1062C92.0922 45.7411 91.6498 46.3193 91.1279 46.8211C90.5634 47.3648 89.9407 47.8448 89.2712 48.2524L87.6302 49.2599L89.7539 52.7093C89.8559 52.8838 90.0014 53.0287 90.1762 53.1302C90.3938 53.2266 90.6402 53.2352 90.864 53.1543C91.1112 53.0738 91.3514 52.9729 91.5819 52.8526C91.9137 52.6928 92.2113 52.5354 92.4748 52.3805L92.8262 52.9507L86.5744 56.8088L86.223 56.2387C86.3809 56.1271 86.6076 55.9617 86.9032 55.7425C87.1171 55.5953 87.3143 55.4254 87.4915 55.2357C87.6387 55.0755 87.7298 54.8716 87.7509 54.655C87.756 54.4405 87.6943 54.2297 87.5744 54.0517L82.5157 45.8377C82.4115 45.6622 82.2705 45.5114 82.1024 45.3958C81.9416 45.2882 81.7113 45.2751 81.4117 45.3566C81.1149 45.4453 80.825 45.5557 80.5444 45.6869C80.2699 45.8156 80.0366 45.9317 79.8446 46.0353L79.4856 45.4712L86.1491 41.3672C87.5066 40.5316 88.7634 40.1083 89.9198 40.0972C91.0761 40.0862 91.9218 40.506 92.4567 41.3566ZM90.5261 45.2223C90.6024 44.8642 90.5926 44.493 90.4974 44.1394C90.4193 43.8548 90.3037 43.582 90.1536 43.3279C89.9579 43.0138 89.7182 42.7293 89.4417 42.4833C89.1613 42.2279 88.8226 42.0451 88.4552 41.9509C88.0259 41.8481 87.5784 41.8481 87.1491 41.9509C86.5846 42.0902 86.0477 42.3238 85.5609 42.6417L84.1114 43.5346L87.2049 48.5661L88.2607 47.9206C89.0017 47.4651 89.5482 47.0051 89.9002 46.5405C90.2116 46.1579 90.4258 45.7056 90.5246 45.2223H90.5261Z" fill="white"/>
<path d="M112.366 39.147L113.572 42.9494L101.235 48.1634L100.974 47.5481C101.147 47.4616 101.398 47.3324 101.728 47.1604C101.962 47.0473 102.183 46.9093 102.387 46.7487C102.557 46.6127 102.677 46.4253 102.731 46.2148C102.767 46.0048 102.738 45.7889 102.647 45.5964L98.9196 36.7806C98.8462 36.5974 98.7261 36.4367 98.5712 36.3145C98.3755 36.1883 98.1417 36.1349 97.9106 36.1637C97.6403 36.1748 97.3715 36.208 97.1067 36.2632C96.8315 36.3114 96.5603 36.38 96.2952 36.4683L96.0343 35.853L102.702 33.031L102.963 33.6464C102.698 33.7732 102.441 33.9163 102.194 34.0747C101.886 34.2668 101.667 34.4141 101.535 34.5166C101.438 34.5825 101.355 34.6674 101.292 34.7662C101.229 34.865 101.187 34.9756 101.168 35.0913C101.145 35.2967 101.176 35.5047 101.257 35.6946L104.752 43.9644C104.872 44.2662 105.024 44.5544 105.205 44.8241C105.268 44.9155 105.349 44.9933 105.442 45.0529C105.536 45.1125 105.641 45.1526 105.751 45.171C106.038 45.1941 106.328 45.154 106.598 45.0534C106.949 44.9428 107.429 44.7588 108.037 44.5014C108.312 44.3857 108.595 44.259 108.886 44.1213C109.178 43.9835 109.45 43.8412 109.702 43.6944C109.932 43.559 110.151 43.4078 110.36 43.242C110.519 43.1275 110.651 42.9792 110.746 42.8076C111.192 41.7468 111.473 40.6244 111.582 39.4788L112.366 39.147Z" fill="white"/>
<path d="M127.041 27.2302C127.91 27.6404 128.679 28.2361 129.293 28.9753C129.927 29.7475 130.374 30.6561 130.598 31.6298C130.848 32.6 130.865 33.6155 130.647 34.5936C130.432 35.5345 130.009 36.4155 129.411 37.1727C128.801 37.9578 128.054 38.6257 127.206 39.144C125.316 40.2874 123.115 40.8106 120.913 40.6402C119.916 40.5575 118.943 40.2862 118.047 39.8408C117.201 39.4215 116.455 38.8235 115.862 38.0882C115.253 37.3397 114.821 36.4632 114.598 35.5242C114.342 34.5497 114.324 33.5282 114.545 32.5454C114.768 31.6114 115.186 30.7351 115.771 29.9738C116.385 29.1758 117.141 28.4986 118.002 27.9768C119.859 26.8495 122.02 26.3277 124.186 26.4836C125.176 26.5539 126.144 26.807 127.041 27.2302ZM127.531 36.865C127.835 36.2008 128.004 35.4832 128.029 34.7535C128.055 33.076 127.639 31.4212 126.822 29.9557C126.456 29.3124 125.965 28.7484 125.379 28.2966C124.813 27.8785 124.158 27.5981 123.465 27.4776C122.688 27.3479 121.891 27.3844 121.129 27.5847C120.19 27.8129 119.432 28.1749 118.857 28.6706C118.3 29.1409 117.862 29.7356 117.577 30.4066C117.309 31.074 117.168 31.7855 117.161 32.5046C117.146 33.2931 117.235 34.08 117.424 34.8455C117.61 35.6517 117.907 36.4279 118.308 37.1516C118.667 37.7939 119.15 38.358 119.729 38.8107C120.286 39.2467 120.937 39.5449 121.631 39.681C122.433 39.8246 123.258 39.7885 124.044 39.5754C124.826 39.3977 125.561 39.0536 126.198 38.5664C126.778 38.1193 127.236 37.5338 127.531 36.8635V36.865Z" fill="white"/>
<path d="M168.672 34.0476L168 37.9419L153.822 36.6855L153.881 36.0189C154.122 36.0279 154.445 36.0279 154.851 36.0189C155.116 36.0256 155.382 36.0064 155.644 35.9615C155.862 35.9178 156.06 35.8064 156.211 35.6433C156.332 35.481 156.402 35.2861 156.412 35.0837L157.261 25.5123C157.282 25.3212 157.253 25.1281 157.178 24.9512C157.063 24.7475 156.879 24.5917 156.659 24.5123C156.384 24.3891 156.098 24.2911 155.805 24.2197C155.521 24.1412 155.233 24.0777 154.943 24.0297L155.001 23.363L168.211 24.5349L167.933 27.7521L167.028 27.6721C166.91 27.1824 166.608 26.6465 166.123 26.0643C165.639 25.4821 165.157 25.1448 164.678 25.0523C164.432 25.005 164.137 24.9598 163.793 24.9165C163.449 24.8733 163.057 24.8321 162.615 24.7928L159.932 24.5545L159.463 29.847L161.384 30.0145C161.838 30.0729 162.297 30.0673 162.749 29.9979C163.041 29.933 163.312 29.7996 163.541 29.6087C163.756 29.4145 163.931 29.1811 164.057 28.921C164.198 28.6559 164.306 28.3748 164.38 28.0839L165.285 28.1638L164.822 33.3809L163.917 33.301C163.907 32.969 163.848 32.6403 163.743 32.3251C163.668 32.0484 163.541 31.7884 163.369 31.5589C163.157 31.3033 162.878 31.1117 162.564 31.0054C162.158 30.8841 161.739 30.8087 161.317 30.7806L159.398 30.6178L159.044 34.6086C159.005 34.9269 159.013 35.249 159.068 35.5649C159.114 35.7943 159.248 35.9964 159.442 36.1274C159.696 36.2846 159.98 36.3873 160.276 36.4291C160.634 36.4955 161.146 36.5583 161.811 36.6176L162.858 36.7111C163.291 36.7494 163.657 36.769 163.956 36.77C164.276 36.7712 164.595 36.7535 164.912 36.7172C165.163 36.7044 165.408 36.6337 165.627 36.5105C166.114 36.1545 166.546 35.7292 166.909 35.2481C167.247 34.851 167.547 34.4233 167.805 33.9706L168.672 34.0476Z" fill="white"/>
<path d="M198.439 46.8754L191.307 44.3309L191.532 43.7005C191.791 43.7869 192.13 43.8845 192.55 43.9931C192.838 44.0839 193.137 44.1346 193.44 44.1439C193.671 44.1297 193.896 44.061 194.096 43.9433C194.266 43.8253 194.392 43.6539 194.455 43.4561L197.721 34.2995L197.551 34.2391L188.218 43.0021L187.649 42.8L186.311 29.9798L186.161 29.927L183.479 37.4427C183.22 38.1707 183.081 38.7448 183.064 39.1651C183.029 39.52 183.117 39.8761 183.313 40.1741C183.436 40.3581 183.737 40.5995 184.218 40.8981C184.526 41.1002 184.847 41.2816 185.179 41.4411L184.954 42.0715L178.435 39.7458L178.66 39.1153C179.031 39.218 179.406 39.3016 179.785 39.3657C180.106 39.4342 180.437 39.4403 180.76 39.3838C181.094 39.3047 181.386 39.1014 181.577 38.8152C181.798 38.5075 182.052 37.9515 182.339 37.1471L184.637 30.7053C184.759 30.3957 184.811 30.0629 184.788 29.7309C184.761 29.459 184.664 29.1989 184.505 28.9768C184.302 28.7113 184.052 28.4862 183.767 28.3132C183.461 28.1186 183.138 27.953 182.802 27.8184L183.026 27.188L188.53 29.1487L189.782 40.2496L196.55 33.752C196.8 33.5101 197.032 33.2499 197.243 32.9737C197.392 32.7946 197.523 32.6016 197.636 32.3975L202.899 34.2753L202.675 34.9058C202.398 34.8205 202.117 34.7505 201.833 34.6961C201.579 34.6402 201.322 34.5984 201.064 34.5709C200.95 34.5534 200.833 34.5594 200.721 34.5884C200.61 34.6174 200.505 34.669 200.414 34.7399C200.263 34.8732 200.149 35.0431 200.083 35.2331L196.845 44.3098C196.774 44.4915 196.756 44.6901 196.795 44.8814C196.867 45.1028 197.003 45.2977 197.186 45.441C197.392 45.6078 197.617 45.7501 197.856 45.8648C198.116 46.0059 198.383 46.1328 198.657 46.2449L198.439 46.8754Z" fill="white"/>
<path d="M219.109 45.3354C219.443 46.2363 219.577 47.1995 219.499 48.1574C219.413 49.1526 219.098 50.1144 218.578 50.9673C218.078 51.8361 217.381 52.5747 216.541 53.1226C215.73 53.645 214.811 53.9799 213.854 54.103C212.869 54.2383 211.868 54.1938 210.899 53.9718C208.749 53.4687 206.809 52.3053 205.353 50.6445C204.695 49.8876 204.188 49.0123 203.857 48.0654C203.545 47.1741 203.43 46.2258 203.519 45.2857C203.608 44.3253 203.912 43.3973 204.409 42.5708C204.907 41.6953 205.608 40.9521 206.453 40.4034C207.265 39.8917 208.176 39.5571 209.127 39.4215C210.123 39.2791 211.137 39.3231 212.118 39.5512C214.232 40.0423 216.142 41.1787 217.582 42.8031C218.243 43.5454 218.761 44.4041 219.109 45.3354ZM212.727 52.5751C213.411 52.3111 214.035 51.9143 214.564 51.4077C215.756 50.2271 216.615 48.7533 217.056 47.1348C217.245 46.4178 217.29 45.6702 217.187 44.9357C217.075 44.2416 216.802 43.5831 216.391 43.0127C215.925 42.377 215.331 41.847 214.646 41.4577C213.814 40.965 213.02 40.6945 212.263 40.6462C211.535 40.5933 210.806 40.7121 210.133 40.9931C209.475 41.2822 208.876 41.6914 208.368 42.1998C207.807 42.7535 207.321 43.3782 206.922 44.0579C206.492 44.7628 206.162 45.5243 205.943 46.3203C205.753 47.029 205.706 47.7684 205.806 48.4953C205.9 49.1962 206.158 49.8649 206.56 50.4469C207.033 51.1095 207.647 51.659 208.358 52.0563C209.041 52.4761 209.807 52.7436 210.603 52.8406C211.323 52.9282 212.053 52.8355 212.727 52.5706V52.5751Z" fill="white"/>
<path d="M244.703 80.101L241.482 82.3905L232.309 71.5144L232.82 71.083C232.985 71.26 233.214 71.4888 233.505 71.7693C233.689 71.9615 233.891 72.1353 234.108 72.2881C234.294 72.4106 234.514 72.4713 234.736 72.4616C234.936 72.4322 235.123 72.3434 235.273 72.2067L242.618 66.0107C242.766 65.8909 242.882 65.7351 242.953 65.5583C243.015 65.3327 242.994 65.0925 242.894 64.881C242.786 64.6 242.652 64.3295 242.494 64.0726C242.348 63.817 242.189 63.5693 242.016 63.3305L242.529 62.8947L251.079 73.0317L248.615 75.1116L248.031 74.4193C248.292 73.989 248.455 73.3957 248.52 72.6396C248.585 71.8834 248.481 71.3047 248.208 70.9035C248.066 70.6964 247.888 70.4566 247.674 70.1841C247.46 69.9116 247.208 69.6059 246.92 69.2671L245.184 67.2083L241.122 70.6336L242.368 72.1102C242.648 72.4713 242.978 72.7911 243.348 73.0604C243.6 73.2194 243.887 73.3161 244.184 73.3424C244.473 73.3552 244.761 73.3127 245.034 73.2172C245.321 73.1282 245.596 73.0052 245.853 72.8507L246.437 73.543L242.44 76.9215L241.856 76.2292C242.083 75.9864 242.273 75.7121 242.42 75.4148C242.562 75.1656 242.655 74.8918 242.695 74.6078C242.724 74.2769 242.661 73.9442 242.513 73.6471C242.31 73.2751 242.066 72.927 241.786 72.6094L240.54 71.1328L237.476 73.7165C237.225 73.9153 237.004 74.1495 236.82 74.4118C236.692 74.6069 236.645 74.8447 236.691 75.0739C236.759 75.3651 236.888 75.6388 237.068 75.8778C237.275 76.1795 237.594 76.5847 238.025 77.0935L238.703 77.8974C238.983 78.2302 239.229 78.5022 239.44 78.7133C239.666 78.9394 239.905 79.1519 240.157 79.3498C240.344 79.5178 240.567 79.6402 240.81 79.7073C241.406 79.7951 242.012 79.7951 242.609 79.7073C243.128 79.6632 243.642 79.5709 244.144 79.4313L244.703 80.101Z" fill="white"/>
<path d="M141.389 31.1788L139.638 31.3055L139.94 35.5287C139.95 35.7299 140.01 35.9253 140.115 36.0973C140.215 36.2572 140.413 36.3703 140.709 36.4367C140.963 36.4806 141.219 36.5033 141.477 36.5045C141.841 36.5166 142.147 36.5166 142.397 36.5045L142.445 37.1712L135.218 37.693L135.169 37.0264C135.361 37.0002 135.639 36.958 136.002 36.8997C136.259 36.8678 136.512 36.8081 136.756 36.7217C136.96 36.6475 137.135 36.5088 137.254 36.3266C137.356 36.1391 137.397 35.9247 137.373 35.7127L136.676 26.0719C136.665 25.8706 136.609 25.6743 136.513 25.4972C136.421 25.3343 136.223 25.2197 135.919 25.1533C135.656 25.1043 135.391 25.0716 135.124 25.0553C134.799 25.0312 134.524 25.0211 134.299 25.0251L134.251 24.3585L142.14 23.7883C142.823 23.7357 143.508 23.7448 144.189 23.8155C144.794 23.8761 145.388 24.0224 145.952 24.2499C146.439 24.4434 146.872 24.7506 147.216 25.1458C147.55 25.5493 147.744 26.0507 147.768 26.5741C147.811 27.0451 147.742 27.5198 147.566 27.9587C147.383 28.3814 147.103 28.7547 146.748 29.0477C146.369 29.3669 145.948 29.6338 145.498 29.841C144.97 30.0901 144.424 30.2993 143.864 30.4669C142.634 30.8003 142.124 31.1683 141.389 31.1788ZM144.815 27.0175C144.802 26.6491 144.702 26.2888 144.523 25.9666C144.344 25.6443 144.091 25.3692 143.784 25.1639C143.156 24.7345 142.301 24.5591 141.22 24.6375L139.172 24.7883L139.585 30.5016L141.163 30.387C142.269 30.3066 143.174 29.9632 143.878 29.3569C144.214 29.0736 144.476 28.7119 144.639 28.3036C144.802 27.8953 144.863 27.4531 144.815 27.016V27.0175Z" fill="white"/>
<path d="M140.552 31.0265C141.741 31.0265 143.029 31.7053 144.021 33.7158C145.014 35.7263 145.861 36.7881 147.815 36.8439C149.768 36.8997 151.027 35.0883 150.774 33.9707C150.774 33.9707 150.14 34.8756 148.75 34.6072C146.513 34.1818 146.045 30.0356 143.795 30.1759C143.367 30.2198 142.948 30.3244 142.549 30.4866C142.549 30.4866 139.364 31.0265 140.552 31.0265Z" fill="white"/>
<path d="M227.017 58.5207L225.685 57.3774L222.922 60.587C222.787 60.7367 222.692 60.9177 222.646 61.1134C222.604 61.2974 222.665 61.5171 222.828 61.7725C222.977 61.9821 223.144 62.1788 223.326 62.3607C223.576 62.6252 223.794 62.8414 223.979 63.0093L223.543 63.5161L218.045 58.7937L218.481 58.2869C218.636 58.4036 218.863 58.569 219.162 58.7831C219.367 58.9424 219.589 59.079 219.824 59.1904C220.021 59.282 220.243 59.3069 220.456 59.2612C220.66 59.1999 220.84 59.0772 220.971 58.9098L227.268 51.5827C227.402 51.4324 227.501 51.2541 227.558 51.0608C227.607 50.8798 227.547 50.6586 227.379 50.3972C227.227 50.1775 227.062 49.9675 226.884 49.7682C226.67 49.5229 226.482 49.3218 226.32 49.1649L226.756 48.6581L232.757 53.8119C233.278 54.2549 233.758 54.7441 234.191 55.2734C234.578 55.743 234.896 56.265 235.136 56.8239C235.345 57.3042 235.436 57.8276 235.401 58.3503C235.354 58.8722 235.138 59.3646 234.786 59.7529C234.485 60.118 234.101 60.406 233.666 60.593C233.239 60.7643 232.778 60.8315 232.32 60.7891C231.825 60.7483 231.339 60.6413 230.873 60.4709C230.322 60.2739 229.787 60.0359 229.271 59.759C228.166 59.124 227.544 59.0245 227.017 58.5207ZM232.38 57.9792C232.631 57.7087 232.814 57.3825 232.914 57.0274C233.013 56.6723 233.028 56.2986 232.955 55.937C232.811 55.1899 232.327 54.462 231.502 53.7531L229.944 52.4152L226.213 56.7605L227.419 57.7922C228.262 58.5162 229.145 58.9088 230.069 58.9702C230.507 59.0061 230.946 58.9339 231.349 58.7601C231.752 58.5863 232.106 58.316 232.38 57.9732V57.9792Z" fill="white"/>
<path d="M226.529 57.8163C227.373 58.6534 227.808 60.0441 227.096 62.1677C226.385 64.2913 226.238 65.6367 227.585 67.0605C228.932 68.4843 231.102 68.0786 231.709 67.1058C231.709 67.1058 230.624 67.2988 229.823 66.1314C228.535 64.2536 231.125 60.9822 229.428 59.495C229.093 59.225 228.722 59.0041 228.324 58.8389C228.324 58.8389 225.685 56.9793 226.529 57.8163Z" fill="white"/>
<path d="M82.8882 248.129C82.9818 248.565 82.9724 249.017 82.8609 249.448C82.7493 249.88 82.5387 250.279 82.2457 250.615C81.5036 251.533 80.4564 251.938 79.104 251.831C77.7516 251.723 76.4303 251.148 75.1403 250.105C74.5398 249.618 73.9995 249.061 73.5309 248.446C73.0992 247.896 72.7247 247.303 72.4133 246.677L71.5777 246.885L70.8236 246.282L73.5702 242.615L74.3243 243.23C74.1342 243.761 73.9958 244.308 73.911 244.865C73.8355 245.417 73.8452 245.976 73.9397 246.524C74.0382 247.092 74.2364 247.637 74.5249 248.135C74.8646 248.707 75.3087 249.21 75.8341 249.618C76.2105 249.932 76.6269 250.196 77.0723 250.401C77.4132 250.561 77.7834 250.649 78.1598 250.66C78.4738 250.664 78.7841 250.593 79.0648 250.452C79.3581 250.296 79.6152 250.079 79.8189 249.817C80.1608 249.383 80.3344 248.841 80.3076 248.289C80.2975 247.686 80.0703 247.051 79.6258 246.386C79.3242 245.93 78.9723 245.413 78.5701 244.835C78.1679 244.257 77.831 243.745 77.5595 243.3C77.0216 242.429 76.7169 241.612 76.6455 240.847C76.5741 240.083 76.8169 239.357 77.374 238.669C77.6887 238.278 78.1066 237.981 78.5806 237.814C79.1016 237.635 79.6544 237.566 80.2035 237.612C80.8135 237.662 81.4112 237.812 81.9727 238.056C82.5937 238.317 83.1742 238.666 83.6966 239.092C84.2601 239.534 84.7555 240.057 85.1672 240.644C85.5137 241.147 85.8193 241.678 86.0812 242.23L86.8685 242.043L87.6227 242.647L84.9078 246.158L84.1537 245.543C84.3318 245.048 84.4828 244.545 84.6061 244.034C84.7259 243.535 84.7671 243.021 84.7283 242.509C84.6834 241.993 84.534 241.491 84.2894 241.034C83.9819 240.487 83.5656 240.008 83.0662 239.627C82.5374 239.174 81.8784 238.9 81.1839 238.844C80.5233 238.803 80.0205 238.998 79.6756 239.428C79.3296 239.827 79.1508 240.344 79.1764 240.871C79.2352 241.47 79.4358 242.045 79.7616 242.55C80.0803 243.09 80.4101 243.601 80.751 244.083C81.0919 244.564 81.4116 245.043 81.7103 245.518C81.979 245.941 82.2247 246.378 82.4463 246.828C82.6501 247.24 82.7987 247.678 82.8882 248.129Z" fill="white"/>
<path d="M90.9892 260.671L84.4161 256.625L84.7676 256.055L85.6001 256.508C85.8539 256.654 86.1217 256.774 86.3995 256.867C86.6164 256.936 86.8486 256.943 87.0692 256.886C87.2674 256.811 87.4319 256.667 87.5322 256.481L92.6075 248.226C92.7143 248.066 92.7753 247.88 92.784 247.687C92.784 247.515 92.6709 247.3 92.4446 247.042C92.2364 246.809 92.0143 246.589 91.7795 246.383C91.5562 246.178 91.321 245.987 91.0751 245.811L91.425 245.241L97.9981 249.286L97.6482 249.856C97.432 249.731 97.166 249.594 96.8503 249.447C96.5728 249.316 96.2877 249.202 95.9966 249.105C95.6949 249.005 95.4561 249.001 95.2802 249.095C95.102 249.184 94.9529 249.323 94.8503 249.494L89.7795 257.734C89.6727 257.901 89.6234 258.098 89.6393 258.295C89.6742 258.534 89.7822 258.757 89.9485 258.933C90.1428 259.137 90.3493 259.329 90.5668 259.508C90.8127 259.722 91.0722 259.921 91.3436 260.102L90.9892 260.671Z" fill="white"/>
<path d="M116.716 258.677C116.385 258.56 116.046 258.469 115.702 258.405C115.363 258.321 115.015 258.278 114.666 258.277C114.337 258.307 114.038 258.508 113.77 258.88C113.447 259.349 113.176 259.851 112.962 260.378L109.096 269.37L108.131 268.955L102.907 254.805L100.185 261.14C99.9301 261.682 99.7514 262.258 99.6541 262.85C99.5916 263.207 99.6544 263.575 99.8321 263.891C99.9478 264.092 100.249 264.361 100.737 264.699C101.05 264.929 101.377 265.138 101.717 265.325L101.454 265.939L94.9951 263.164L95.2591 262.55C95.6138 262.662 95.9756 262.751 96.342 262.815C96.8588 262.916 97.1937 262.952 97.3465 262.924C97.6847 262.868 97.9889 262.685 98.1972 262.413C98.4355 262.122 98.7271 261.575 99.072 260.773L101.672 254.723C101.788 254.447 101.844 254.15 101.837 253.85C101.84 253.563 101.767 253.28 101.624 253.031C101.387 252.668 101.093 252.345 100.752 252.076C100.444 251.806 100.106 251.572 99.7431 251.381L100.007 250.767L104.506 252.701L109.333 265.868L111.838 260.025C112.095 259.478 112.274 258.897 112.369 258.299C112.415 257.865 112.355 257.537 112.188 257.315C111.927 257.028 111.632 256.775 111.31 256.56C110.995 256.324 110.661 256.112 110.313 255.927L110.577 255.313L116.98 258.064L116.716 258.677Z" fill="white"/>
<path d="M122.964 273.551C121.993 273.319 121.067 272.929 120.221 272.399C119.41 271.896 118.698 271.249 118.12 270.491C117.563 269.746 117.17 268.892 116.966 267.984C116.753 267.01 116.774 265.999 117.025 265.034C117.249 264.055 117.692 263.139 118.322 262.357C118.928 261.615 119.685 261.01 120.542 260.583C121.439 260.141 122.411 259.873 123.408 259.794C125.978 259.56 128.538 260.339 130.542 261.965L131.174 261.459L132.112 261.687L131.091 266.345L130.129 266.111C130.106 265.57 130.038 265.033 129.924 264.504C129.818 263.961 129.631 263.437 129.37 262.949C129.097 262.445 128.723 262.002 128.27 261.649C127.772 261.27 127.197 261.003 126.586 260.867C125.863 260.684 125.113 260.643 124.375 260.746C123.668 260.847 122.993 261.105 122.399 261.5C121.782 261.93 121.262 262.484 120.872 263.127C120.404 263.887 120.063 264.719 119.863 265.589C119.665 266.367 119.614 267.175 119.713 267.972C119.808 268.716 120.049 269.433 120.423 270.084C120.8 270.728 121.303 271.289 121.903 271.734C122.555 272.212 123.299 272.551 124.088 272.731C124.679 272.881 125.289 272.945 125.898 272.922C126.42 272.904 126.937 272.809 127.432 272.64C127.876 272.472 128.297 272.249 128.685 271.975C129.061 271.71 129.397 271.394 129.684 271.035L130.483 271.578C129.498 272.702 128.383 273.406 127.138 273.69C125.893 273.973 124.502 273.927 122.964 273.551Z" fill="white"/>
<path d="M148.531 272.764L147.875 276.66L133.697 275.462L133.753 274.795C133.995 274.803 134.319 274.803 134.723 274.795C134.989 274.801 135.254 274.781 135.516 274.735C135.734 274.69 135.933 274.578 136.083 274.414C136.204 274.251 136.273 274.056 136.282 273.854L137.091 264.28C137.111 264.088 137.081 263.895 137.005 263.719C136.889 263.516 136.704 263.361 136.484 263.283C136.209 263.161 135.923 263.064 135.631 262.993C135.347 262.916 135.059 262.853 134.768 262.806L134.824 262.14L148.038 263.256L147.766 266.467L146.861 266.391C146.741 265.903 146.436 265.368 145.949 264.788C145.461 264.208 144.978 263.873 144.501 263.782C144.255 263.736 143.959 263.692 143.616 263.651C143.272 263.61 142.879 263.57 142.438 263.533L139.754 263.307L139.302 268.601L141.228 268.764C141.682 268.821 142.141 268.814 142.593 268.743C142.884 268.677 143.155 268.542 143.383 268.351C143.596 268.156 143.771 267.922 143.896 267.661C144.036 267.396 144.143 267.114 144.216 266.823L145.121 266.898L144.68 272.118L143.775 272.041C143.763 271.71 143.704 271.381 143.597 271.067C143.521 270.791 143.393 270.531 143.22 270.302C143.007 270.047 142.727 269.857 142.412 269.752C142.009 269.631 141.593 269.556 141.174 269.527L139.242 269.376L138.911 273.363C138.874 273.681 138.884 274.003 138.94 274.319C138.987 274.548 139.122 274.75 139.317 274.88C139.572 275.037 139.856 275.14 140.153 275.181C140.51 275.246 141.023 275.306 141.689 275.362L142.736 275.451C143.17 275.488 143.536 275.506 143.834 275.506C144.154 275.506 144.473 275.487 144.79 275.45C145.042 275.436 145.286 275.365 145.505 275.24C145.991 274.882 146.421 274.455 146.783 273.972C147.119 273.573 147.417 273.144 147.673 272.69L148.531 272.764Z" fill="white"/>
<path d="M175.227 273.289L163.086 275.148L162.841 273.553C163.096 273.209 163.38 272.888 163.689 272.593C164.058 272.231 164.5 271.829 165.016 271.387C165.33 271.124 165.71 270.832 166.155 270.509C166.601 270.186 167.107 269.83 167.675 269.441C168.181 269.107 168.663 268.739 169.117 268.337C169.455 268.022 169.746 267.661 169.982 267.265C170.154 266.963 170.27 266.632 170.322 266.289C170.384 265.765 170.365 265.235 170.267 264.717C170.118 263.747 169.719 263.079 169.071 262.713C168.422 262.347 167.644 262.233 166.737 262.372C166.192 262.452 165.667 262.636 165.19 262.913C164.766 263.141 164.418 263.487 164.188 263.909C164.289 264.148 164.41 264.432 164.55 264.761C164.689 265.074 164.786 265.404 164.84 265.743C164.86 265.897 164.844 266.053 164.794 266.201C164.744 266.348 164.661 266.482 164.552 266.592C164.314 266.863 163.928 267.04 163.393 267.121C163.21 267.161 163.02 267.159 162.837 267.116C162.655 267.073 162.484 266.99 162.338 266.872C162.045 266.606 161.861 266.241 161.822 265.847C161.762 265.395 161.829 264.936 162.016 264.521C162.239 264.017 162.556 263.562 162.952 263.179C163.429 262.717 163.981 262.338 164.583 262.058C165.284 261.723 166.032 261.495 166.801 261.384C168.571 261.112 170.029 261.252 171.175 261.803C172.32 262.354 172.986 263.224 173.173 264.412C173.261 264.941 173.247 265.482 173.132 266.005C173.01 266.514 172.766 266.985 172.42 267.378C171.999 267.865 171.51 268.291 170.969 268.643C170.399 269.021 169.523 269.559 168.339 270.257C167.635 270.675 166.982 271.099 166.378 271.528C165.863 271.889 165.379 272.293 164.932 272.735L174.897 271.209L175.227 273.289Z" fill="white"/>
<path d="M190.085 257.422C190.813 257.826 191.447 258.38 191.945 259.048C192.467 259.741 192.872 260.516 193.142 261.342C193.467 262.268 193.61 263.248 193.563 264.228C193.522 265.081 193.295 265.914 192.897 266.669C192.486 267.419 191.921 268.073 191.238 268.587C190.474 269.158 189.621 269.597 188.713 269.886C187.744 270.226 186.722 270.385 185.696 270.355C184.831 270.334 183.983 270.114 183.217 269.712C182.472 269.309 181.822 268.751 181.312 268.076C180.767 267.354 180.346 266.546 180.069 265.685C179.783 264.855 179.639 263.982 179.645 263.103C179.66 262.263 179.848 261.435 180.197 260.67C180.565 259.871 181.11 259.167 181.791 258.61C182.592 257.955 183.51 257.46 184.497 257.152C185.633 256.774 186.665 256.623 187.592 256.699C188.466 256.756 189.316 257.003 190.085 257.422ZM190.387 262.248C189.797 260.471 189.001 259.206 187.999 258.453C186.998 257.7 185.919 257.52 184.763 257.913C184.206 258.082 183.703 258.391 183.301 258.81C182.898 259.229 182.61 259.745 182.464 260.307C182.109 261.514 182.227 263.004 182.817 264.777C183.378 266.465 184.154 267.713 185.146 268.522C186.137 269.332 187.243 269.533 188.464 269.126C189.682 268.724 190.449 267.899 190.764 266.652C191.079 265.405 190.955 263.94 190.393 262.256L190.387 262.248Z" fill="white"/>
<path d="M210.267 259.936L202.424 264.017L202.038 263.275C202.263 263.141 202.61 262.922 203.079 262.621C203.409 262.419 203.724 262.195 204.023 261.949C204.21 261.784 204.341 261.565 204.399 261.322C204.434 261.041 204.371 260.756 204.222 260.515L200.397 253.17L197.503 254.678L197.05 253.799L197.69 253.465C198.467 253.077 199.158 252.536 199.721 251.876C200.239 251.251 200.558 250.704 200.678 250.235L201.643 249.733C201.856 250.198 202.108 250.741 202.397 251.36C202.687 251.979 202.958 252.529 203.212 253.01L206.444 259.215C206.56 259.447 206.741 259.642 206.964 259.775C207.187 259.903 207.446 259.956 207.702 259.925C208.077 259.863 208.444 259.762 208.798 259.624C209.288 259.449 209.647 259.306 209.877 259.195L210.267 259.936Z" fill="white"/>
<path d="M219.988 245.555C220.575 246.371 220.999 247.293 221.238 248.27C221.47 249.212 221.509 250.191 221.351 251.149C221.182 252.137 220.836 253.088 220.33 253.954C219.712 254.981 218.943 255.909 218.05 256.708L217.438 256.153L218.237 255.367C219.166 254.21 219.715 253.054 219.884 251.898C220.053 250.743 219.857 249.571 219.296 248.383C219.119 248.984 218.85 249.555 218.498 250.073C218.034 250.679 217.487 251.217 216.873 251.671C216.451 251.977 215.971 252.197 215.463 252.319C214.955 252.44 214.428 252.459 213.913 252.377C213.382 252.305 212.873 252.122 212.418 251.839C211.964 251.555 211.574 251.179 211.276 250.734C210.928 250.257 210.687 249.711 210.57 249.132C210.454 248.553 210.465 247.955 210.602 247.381C210.868 246.153 211.857 244.844 212.967 244.063C214.174 243.206 215.411 242.911 216.679 243.176C217.947 243.442 219.05 244.234 219.988 245.555ZM218.205 246.692C217.401 245.551 216.56 244.804 215.683 244.452C214.807 244.1 214.032 244.165 213.359 244.645C213.053 244.85 212.799 245.126 212.62 245.448C212.441 245.771 212.342 246.132 212.331 246.5C212.289 247.281 212.58 248.11 213.202 248.987C213.762 249.777 214.416 250.267 215.163 250.46C215.528 250.555 215.909 250.565 216.278 250.49C216.647 250.415 216.994 250.257 217.293 250.027C217.693 249.749 218.037 249.399 218.306 248.993C218.57 248.579 218.743 248.113 218.815 247.627C218.789 247.587 218.765 247.545 218.744 247.502C218.695 247.412 218.64 247.326 218.579 247.244C218.531 247.176 218.475 247.093 218.41 246.989C218.346 246.885 218.275 246.788 218.205 246.692Z" fill="white"/>
</g>
<defs>
<clipPath id="clip0_212_13">
<rect width="300" height="299.999" fill="white"/>
</clipPath>
</defs>
</svg>
