<svg width="327" height="13" viewBox="0 0 327 13" fill="none" xmlns="http://www.w3.org/2000/svg">
<path d="M326.768 2.37519C307.959 2.37519 289.15 2.32004 270.354 2.39357C258.861 2.44259 247.368 2.63866 235.889 2.85925C225.337 3.06147 214.786 3.30044 204.249 3.66197C187.159 4.25022 170.043 4.78334 153.022 5.62895C107.432 7.88391 61.8965 10.2921 16.3339 12.6267C13.0307 12.7982 9.56373 13.1904 6.45161 12.8902C4.11752 12.6635 1.26473 11.6708 0.377501 10.7026C-1.00111 9.19522 1.5924 8.4599 4.97751 8.31896C24.2235 7.49786 43.4695 6.63388 62.7292 5.82504C98.6414 4.31152 134.54 2.74896 170.48 1.36412C186.368 0.751354 202.338 0.37758 218.281 0.187624C223.672 0.126348 229.064 0.0773345 234.469 0.00380318C239.11 -0.057473 243.928 0.647197 248.378 0.285668C255.012 -0.253562 261.441 0.94745 267.72 0.457241C276.155 -0.198414 284.249 0.763615 292.507 0.757488C301.188 0.745232 309.883 0.757495 318.565 0.880048C321.39 0.922941 324.188 1.33962 327 1.59085C326.932 1.84821 326.863 2.1117 326.795 2.37519H326.768Z" fill="#59BBE4"/>
</svg>
